<svg xmlns="http://www.w3.org/2000/svg" width="360" height="152" viewBox="0 0 360 152" role="img" aria-label="Recently pushed repositories" font-family="'Segoe UI', Ubuntu, 'Helvetica Neue', Sans-Serif"><title>Recently pushed repositories</title><text x="25" y="32" fill="#D9A75C" font-size="18" font-weight="600">Recently Pushed</text><g transform="translate(0,62)"><path fill="#4FB08E" transform="translate(25,-12)" d="M2 2.5A2.5 2.5 0 0 1 4.5 0h8.75a.75.75 0 0 1 .75.75v12.5a.75.75 0 0 1-.75.75h-2.5a.75.75 0 0 1 0-1.5h1.75v-2h-8a1 1 0 0 0-.714 1.7.75.75 0 1 1-1.072 1.05A2.495 2.495 0 0 1 2 11.5Zm10.5-1h-8a1 1 0 0 0-1 1v6.708A2.486 2.486 0 0 1 4.5 9h8ZM5 12.25a.25.25 0 0 1 .25-.25h3.5a.25.25 0 0 1 .25.25v3.25a.25.25 0 0 1-.4.2l-1.45-1.087a.249.249 0 0 0-.3 0L5.4 15.7a.25.25 0 0 1-.4-.2Z"/><text x="51" y="0" fill="#C9D4CC" font-size="14" font-weight="600">SurveyExcluderModel</text><circle cx="222" cy="-4" r="5" fill="#3572A5"/><text x="232" y="0" fill="#8B949E" font-size="12">Python</text><text x="335" y="0" fill="#8B949E" font-size="12" text-anchor="end">2d ago</text></g><g transform="translate(0,86)"><path fill="#4FB08E" transform="translate(25,-12)" d="M2 2.5A2.5 2.5 0 0 1 4.5 0h8.75a.75.75 0 0 1 .75.75v12.5a.75.75 0 0 1-.75.75h-2.5a.75.75 0 0 1 0-1.5h1.75v-2h-8a1 1 0 0 0-.714 1.7.75.75 0 1 1-1.072 1.05A2.495 2.495 0 0 1 2 11.5Zm10.5-1h-8a1 1 0 0 0-1 1v6.708A2.486 2.486 0 0 1 4.5 9h8ZM5 12.25a.25.25 0 0 1 .25-.25h3.5a.25.25 0 0 1 .25.25v3.25a.25.25 0 0 1-.4.2l-1.45-1.087a.249.249 0 0 0-.3 0L5.4 15.7a.25.25 0 0 1-.4-.2Z"/><text x="51" y="0" fill="#C9D4CC" font-size="14" font-weight="600">SurvayExtruderUI</text><circle cx="222" cy="-4" r="5" fill="#3178C6"/><text x="232" y="0" fill="#8B949E" font-size="12">TypeScript</text><text x="335" y="0" fill="#8B949E" font-size="12" text-anchor="end">4d ago</text></g><g transform="translate(0,110)"><path fill="#4FB08E" transform="translate(25,-12)" d="M2 2.5A2.5 2.5 0 0 1 4.5 0h8.75a.75.75 0 0 1 .75.75v12.5a.75.75 0 0 1-.75.75h-2.5a.75.75 0 0 1 0-1.5h1.75v-2h-8a1 1 0 0 0-.714 1.7.75.75 0 1 1-1.072 1.05A2.495 2.495 0 0 1 2 11.5Zm10.5-1h-8a1 1 0 0 0-1 1v6.708A2.486 2.486 0 0 1 4.5 9h8ZM5 12.25a.25.25 0 0 1 .25-.25h3.5a.25.25 0 0 1 .25.25v3.25a.25.25 0 0 1-.4.2l-1.45-1.087a.249.249 0 0 0-.3 0L5.4 15.7a.25.25 0 0 1-.4-.2Z"/><text x="51" y="0" fill="#C9D4CC" font-size="14" font-weight="600">Adityaelectroinfra</text><circle cx="222" cy="-4" r="5" fill="#E34C26"/><text x="232" y="0" fill="#8B949E" font-size="12">HTML</text><text x="335" y="0" fill="#8B949E" font-size="12" text-anchor="end">2w ago</text></g><g transform="translate(0,134)"><path fill="#4FB08E" transform="translate(25,-12)" d="M2 2.5A2.5 2.5 0 0 1 4.5 0h8.75a.75.75 0 0 1 .75.75v12.5a.75.75 0 0 1-.75.75h-2.5a.75.75 0 0 1 0-1.5h1.75v-2h-8a1 1 0 0 0-.714 1.7.75.75 0 1 1-1.072 1.05A2.495 2.495 0 0 1 2 11.5Zm10.5-1h-8a1 1 0 0 0-1 1v6.708A2.486 2.486 0 0 1 4.5 9h8ZM5 12.25a.25.25 0 0 1 .25-.25h3.5a.25.25 0 0 1 .25.25v3.25a.25.25 0 0 1-.4.2l-1.45-1.087a.249.249 0 0 0-.3 0L5.4 15.7a.25.25 0 0 1-.4-.2Z"/><text x="51" y="0" fill="#C9D4CC" font-size="14" font-weight="600">Medsys</text><circle cx="222" cy="-4" r="5" fill="#3178C6"/><text x="232" y="0" fill="#8B949E" font-size="12">TypeScript</text><text x="335" y="0" fill="#8B949E" font-size="12" text-anchor="end">4w ago</text></g></svg>