<svg xmlns="http://www.w3.org/2000/svg" width="360" height="142" viewBox="0 0 360 142" role="img" aria-label="Atharva Nighot&#x27;s GitHub Stats" font-family="'Segoe UI', Ubuntu, 'Helvetica Neue', Sans-Serif"><title>Atharva Nighot&#x27;s GitHub Stats</title><text x="25" y="32" fill="#8A5A1C" font-size="18" font-weight="600">Atharva Nighot&#x27;s GitHub Stats</text><g transform="translate(25,58)"><path fill="#0D6B4F" transform="translate(0,-12)" d="M6 2c.306 0 .582.187.696.471L10 10.731l1.304-3.26A.751.751 0 0 1 12 7h3.25a.75.75 0 0 1 0 1.5h-2.742l-1.812 4.528a.751.751 0 0 1-1.392 0L6 4.77 4.696 8.03A.75.75 0 0 1 4 8.5H.75a.75.75 0 0 1 0-1.5h2.742l1.812-4.529A.751.751 0 0 1 6 2Z"/><text x="26" y="0" fill="#24292F" font-size="14" font-weight="600">Contributions (last year)</text><text x="335" y="0" fill="#24292F" font-size="14" font-weight="700" text-anchor="end">136</text></g><g transform="translate(25,84)"><path fill="#0D6B4F" transform="translate(0,-12)" d="M11.93 8.5a4.002 4.002 0 0 1-7.86 0H.75a.75.75 0 0 1 0-1.5h3.32a4.002 4.002 0 0 1 7.86 0h3.32a.75.75 0 0 1 0 1.5Zm-1.43-.75a2.5 2.5 0 1 0-5 0 2.5 2.5 0 0 0 5 0Z"/><text x="26" y="0" fill="#24292F" font-size="14" font-weight="600">Public commits (last year)</text><text x="335" y="0" fill="#24292F" font-size="14" font-weight="700" text-anchor="end">120</text></g><g transform="translate(25,110)"><path fill="#0D6B4F" transform="translate(0,-12)" d="M2 2.5A2.5 2.5 0 0 1 4.5 0h8.75a.75.75 0 0 1 .75.75v12.5a.75.75 0 0 1-.75.75h-2.5a.75.75 0 0 1 0-1.5h1.75v-2h-8a1 1 0 0 0-.714 1.7.75.75 0 1 1-1.072 1.05A2.495 2.495 0 0 1 2 11.5Zm10.5-1h-8a1 1 0 0 0-1 1v6.708A2.486 2.486 0 0 1 4.5 9h8ZM5 12.25a.25.25 0 0 1 .25-.25h3.5a.25.25 0 0 1 .25.25v3.25a.25.25 0 0 1-.4.2l-1.45-1.087a.249.249 0 0 0-.3 0L5.4 15.7a.25.25 0 0 1-.4-.2Z"/><text x="26" y="0" fill="#24292F" font-size="14" font-weight="600">Repos contributed to</text><text x="335" y="0" fill="#24292F" font-size="14" font-weight="700" text-anchor="end">18</text></g></svg>